<?xml version="1.0" encoding="UTF-8"?>
<svg id="Ebene_1" data-name="Ebene 1" xmlns="http://www.w3.org/2000/svg" viewBox="0 0 541.79 141.73">
  <defs>
    <style>
      .cls-1 {
        fill: #fff;
      }
    </style>
  </defs>
  <g>
    <path class="cls-1" d="m14.98,27.74c-1.58,2.02-3.16,4.03-4.52,6.22-1.83,2.95-3.46,6.06-4.87,9.28-.93,2.13-1.74,4.31-2.44,6.54-.69,2.19-1.26,4.43-1.72,6.71,0,.04-.02.07-.03.1-.94,4.64-1.41,9.46-1.41,14.41,0,9.9,1.88,19.25,5.59,27.78.35.79.83,1.5,1.2,2.27.83,1.74,1.72,3.45,2.69,5.1,1.17,2,2.49,3.89,3.85,5.76.54.73,1.05,1.48,1.62,2.19,0,0,0,0,0,0,.05.06.09.13.14.19,1.85-2.15,3.7-4.3,5.26-6.62,0,0,0,0,0,0,1.02-1.53,1.98-3.09,2.87-4.68.89-1.6,1.71-3.23,2.47-4.9,3.71-8.22,5.59-17.2,5.59-26.7s-1.88-18.75-5.59-27.09c-2.67-6-6.36-11.5-10.71-16.57"/>
    <path class="cls-1" d="m106.35,46.78l22.66-22.66c-6.17-7.03-13.9-12.73-23.01-16.94C95.7,2.41,84.6,0,73.02,0c-10.16,0-19.8,1.82-28.66,5.4-8.86,3.59-16.69,8.67-23.27,15.11-.5.49-.94,1.03-1.42,1.53l.31.34c5.56,5.99,10.02,12.73,13.28,20.04,1.84,4.12,3.21,8.44,4.2,12.88.04-.11.07-.23.12-.35,1.89-4.82,4.59-9.04,8.04-12.56,3.44-3.51,7.54-6.32,12.17-8.34,4.61-2.02,9.73-3.04,15.21-3.04,6.91,0,13.35,1.45,19.14,4.31,5.27,2.61,10.04,6.46,14.19,11.44Z"/>
  </g>
  <path class="cls-1" d="m92.86,60.26l-14.59,14.59v14.66h28.64l-.98,2.36c-1.35,3.26-3.31,6.23-5.82,8.84-3.12,3.26-6.92,5.83-11.29,7.65-4.36,1.83-9.28,2.76-14.62,2.76-5.6,0-10.85-1.03-15.6-3.05-4.75-2.01-8.97-4.85-12.56-8.44-3.59-3.57-6.39-7.87-8.34-12.76-.02-.05-.04-.11-.06-.16-1,4.6-2.44,9.05-4.36,13.31-3.24,7.15-7.67,13.76-13.17,19.66l-.13.15c.45.46.86.96,1.33,1.41,6.71,6.46,14.6,11.54,23.46,15.11,8.86,3.59,18.57,5.41,28.86,5.41s19.41-1.79,27.88-5.31c8.46-3.51,15.89-8.57,22.08-15.01,6.19-6.45,11.08-14.12,14.53-22.78,3.45-8.67,5.2-18.28,5.2-28.56v-9.81h-50.43Z"/>
  <g>
    <path class="cls-1" d="m213.96,80.2h18.55c-.65,2.09-1.77,3.95-3.34,5.59-1.57,1.64-3.45,2.92-5.64,3.83-2.2.92-4.63,1.37-7.32,1.37s-5.42-.5-7.8-1.52c-2.39-1.01-4.48-2.42-6.28-4.23-1.8-1.8-3.19-3.92-4.17-6.37-.98-2.46-1.48-5.12-1.48-8s.48-5.53,1.43-7.95c.94-2.42,2.28-4.51,4.02-6.29,1.73-1.77,3.76-3.16,6.09-4.17,2.32-1.01,4.86-1.52,7.61-1.52,3.47,0,6.65.72,9.57,2.16,2.91,1.44,5.48,3.6,7.7,6.48l11.88-10.7c-3.27-4.19-7.49-7.48-12.66-9.86s-10.66-3.59-16.49-3.59c-5.1,0-9.88.9-14.33,2.7-4.46,1.81-8.33,4.32-11.64,7.56-3.3,3.24-5.89,7.01-7.75,11.29-1.87,4.29-2.8,8.92-2.8,13.89s.93,9.61,2.8,13.89c1.86,4.29,4.48,8.05,7.85,11.29,3.37,3.24,7.28,5.76,11.73,7.56,4.45,1.8,9.26,2.7,14.43,2.7s9.68-.88,13.93-2.65c4.26-1.77,7.94-4.27,11.05-7.51,3.11-3.24,5.53-7.03,7.26-11.38,1.73-4.35,2.6-9.11,2.6-14.28v-4.9h-36.81v14.63Z"/>
    <path class="cls-1" d="m315.55,69.99c2.35-3.4,3.53-7.27,3.53-11.58s-1.03-8.04-3.09-11.34c-2.06-3.3-4.93-5.89-8.59-7.75-3.67-1.87-7.85-2.8-12.56-2.8h-35.14v68.71h16.88v-25.03h12.86l12.96,25.03h18.84l-15.02-27.49c3.86-1.77,6.97-4.35,9.33-7.75Zm-15.95-5.7c-1.61,1.44-3.71,2.16-6.33,2.16h-16.69v-15.5h16.69c2.62,0,4.73.72,6.33,2.16,1.6,1.44,2.4,3.31,2.4,5.59s-.81,4.16-2.4,5.6Z"/>
    <polygon class="cls-1" points="344.6 77.64 375.48 77.64 375.48 63.51 344.6 63.51 344.6 51.14 381.9 51.14 381.9 36.51 327.72 36.51 327.72 105.22 382.29 105.22 382.29 90.6 344.6 90.6 344.6 77.64"/>
    <rect class="cls-1" x="392.2" y="36.51" width="16.88" height="68.71"/>
    <path class="cls-1" d="m468.71,39.41c-3.5-1.93-7.51-2.9-12.02-2.9h-36.22v68.71h16.88v-24.63h19.34c4.45,0,8.44-.95,11.97-2.85,3.53-1.89,6.32-4.5,8.35-7.8,2.02-3.3,3.04-7.01,3.04-11.13s-1.02-8.15-3.04-11.49c-2.03-3.34-4.8-5.97-8.3-7.9Zm-8,25.07c-1.51,1.45-3.51,2.16-5.99,2.16h-17.37v-15.7h17.37c2.48,0,4.48.73,5.99,2.2,1.5,1.48,2.25,3.39,2.25,5.74s-.75,4.15-2.25,5.59Z"/>
    <polygon class="cls-1" points="505.56 90.3 505.56 36.51 488.69 36.51 488.69 105.22 541.79 105.22 541.79 90.3 505.56 90.3"/>
  </g>
</svg>